<?xml version="1.0" encoding="UTF-8"?><svg xmlns="http://www.w3.org/2000/svg" xmlns:xlink="http://www.w3.org/1999/xlink" fill-opacity="1" color-rendering="auto" color-interpolation="auto" text-rendering="auto" stroke="black" stroke-linecap="square" width="1388" stroke-miterlimit="10" shape-rendering="auto" stroke-opacity="1" fill="black" stroke-dasharray="none" font-weight="normal" stroke-width="1" height="694" font-family="'Dialog'" font-style="normal" stroke-linejoin="miter" font-size="12px" stroke-dashoffset="0" image-rendering="auto">
  <!--Generated by ySVG 2.5-->
  <defs id="genericDefs"/>
  <g>
    <defs id="defs1">
      <clipPath clipPathUnits="userSpaceOnUse" id="clipPath1">
        <path d="M0 0 L1388 0 L1388 694 L0 694 L0 0 Z"/>
      </clipPath>
      <clipPath clipPathUnits="userSpaceOnUse" id="clipPath2">
        <path d="M-49 271 L1339 271 L1339 965 L-49 965 L-49 271 Z"/>
      </clipPath>
    </defs>
    <g fill="silver" text-rendering="geometricPrecision" shape-rendering="geometricPrecision" transform="matrix(1,0,0,1,49,-271)" stroke="silver">
      <rect x="-13.96" width="250" height="80" y="566.7973" clip-path="url(#clipPath2)" stroke="none"/>
    </g>
    <g fill="white" text-rendering="geometricPrecision" shape-rendering="geometricPrecision" transform="matrix(1,0,0,1,49,-271)" stroke="white">
      <rect x="-13.96" width="1" height="80" y="566.7973" clip-path="url(#clipPath2)" stroke="none"/>
      <rect x="-12.96" width="248" height="1" y="566.7973" clip-path="url(#clipPath2)" stroke="none"/>
      <rect x="-12.96" y="645.7973" clip-path="url(#clipPath2)" fill="rgb(134,134,134)" width="249" height="1" stroke="none"/>
      <rect x="235.04" y="566.7973" clip-path="url(#clipPath2)" fill="rgb(134,134,134)" width="1" height="79" stroke="none"/>
    </g>
    <g font-size="35px" stroke-linecap="butt" transform="matrix(1,0,0,1,49,-271)" text-rendering="geometricPrecision" font-family="sans-serif" shape-rendering="geometricPrecision" stroke-miterlimit="1.45">
      <text x="89.4799" xml:space="preserve" y="620.3774" clip-path="url(#clipPath2)" stroke="none">jar</text>
    </g>
    <g fill="silver" text-rendering="geometricPrecision" shape-rendering="geometricPrecision" transform="matrix(1,0,0,1,49,-271)" stroke="silver">
      <rect x="-23.96" width="250" height="80" y="576.7973" clip-path="url(#clipPath2)" stroke="none"/>
      <rect x="-23.96" y="576.7973" clip-path="url(#clipPath2)" fill="white" width="1" height="80" stroke="none"/>
      <rect x="-22.96" y="576.7973" clip-path="url(#clipPath2)" fill="white" width="248" height="1" stroke="none"/>
      <rect x="-22.96" y="655.7973" clip-path="url(#clipPath2)" fill="rgb(134,134,134)" width="249" height="1" stroke="none"/>
      <rect x="225.04" y="576.7973" clip-path="url(#clipPath2)" fill="rgb(134,134,134)" width="1" height="79" stroke="none"/>
    </g>
    <g font-size="35px" stroke-linecap="butt" transform="matrix(1,0,0,1,49,-271)" text-rendering="geometricPrecision" font-family="sans-serif" shape-rendering="geometricPrecision" stroke-miterlimit="1.45">
      <text x="79.4799" xml:space="preserve" y="630.3774" clip-path="url(#clipPath2)" stroke="none">jar</text>
    </g>
    <g fill="silver" text-rendering="geometricPrecision" shape-rendering="geometricPrecision" transform="matrix(1,0,0,1,49,-271)" stroke="silver">
      <rect x="-33.96" width="250" height="80" y="586.7973" clip-path="url(#clipPath2)" stroke="none"/>
      <rect x="-33.96" y="586.7973" clip-path="url(#clipPath2)" fill="white" width="1" height="80" stroke="none"/>
      <rect x="-32.96" y="586.7973" clip-path="url(#clipPath2)" fill="white" width="248" height="1" stroke="none"/>
      <rect x="-32.96" y="665.7973" clip-path="url(#clipPath2)" fill="rgb(134,134,134)" width="249" height="1" stroke="none"/>
      <rect x="215.04" y="586.7973" clip-path="url(#clipPath2)" fill="rgb(134,134,134)" width="1" height="79" stroke="none"/>
    </g>
    <g font-size="35px" stroke-linecap="butt" transform="matrix(1,0,0,1,49,-271)" text-rendering="geometricPrecision" font-family="sans-serif" shape-rendering="geometricPrecision" stroke-miterlimit="1.45">
      <text x="69.4799" xml:space="preserve" y="640.3774" clip-path="url(#clipPath2)" stroke="none">jar</text>
    </g>
    <g fill="silver" text-rendering="geometricPrecision" shape-rendering="geometricPrecision" transform="matrix(1,0,0,1,49,-271)" stroke="silver">
      <rect x="286.68" width="250" height="230" y="719.7611" clip-path="url(#clipPath2)" stroke="none"/>
    </g>
    <g text-rendering="geometricPrecision" stroke-miterlimit="1.45" shape-rendering="geometricPrecision" transform="matrix(1,0,0,1,49,-271)" stroke-linecap="butt">
      <rect fill="none" x="286.68" width="250" height="230" y="719.7611" clip-path="url(#clipPath2)"/>
    </g>
    <g fill="white" text-rendering="geometricPrecision" shape-rendering="geometricPrecision" transform="matrix(1,0,0,1,49,-271)" stroke="white">
      <rect x="311.68" width="200" height="30" y="903.8623" clip-path="url(#clipPath2)" stroke="none"/>
    </g>
    <g text-rendering="geometricPrecision" stroke-miterlimit="1.45" stroke-width="2" shape-rendering="geometricPrecision" transform="matrix(1,0,0,1,49,-271)" stroke-linecap="butt">
      <rect fill="none" x="311.68" width="200" height="30" y="903.8623" clip-path="url(#clipPath2)"/>
      <text x="327.7297" font-size="25px" y="928.5623" clip-path="url(#clipPath2)" font-family="sans-serif" stroke="none" stroke-width="1" xml:space="preserve">instrumenting</text>
    </g>
    <g fill="white" text-rendering="geometricPrecision" shape-rendering="geometricPrecision" transform="matrix(1,0,0,1,49,-271)" stroke="white">
      <rect x="311.68" width="200" height="30" y="827.0715" clip-path="url(#clipPath2)" stroke="none"/>
    </g>
    <g text-rendering="geometricPrecision" stroke-miterlimit="1.45" stroke-width="2" shape-rendering="geometricPrecision" transform="matrix(1,0,0,1,49,-271)" stroke-linecap="butt">
      <rect fill="none" x="311.68" width="200" height="30" y="827.0715" clip-path="url(#clipPath2)"/>
      <text x="367.9173" font-size="25px" y="851.7715" clip-path="url(#clipPath2)" font-family="sans-serif" stroke="none" stroke-width="1" xml:space="preserve">inlining</text>
    </g>
    <g fill="white" text-rendering="geometricPrecision" shape-rendering="geometricPrecision" transform="matrix(1,0,0,1,49,-271)" stroke="white">
      <rect x="311.68" width="200" height="30" y="785.9323" clip-path="url(#clipPath2)" stroke="none"/>
    </g>
    <g text-rendering="geometricPrecision" stroke-miterlimit="1.45" stroke-width="2" shape-rendering="geometricPrecision" transform="matrix(1,0,0,1,49,-271)" stroke-linecap="butt">
      <rect fill="none" x="311.68" width="200" height="30" y="785.9323" clip-path="url(#clipPath2)"/>
      <text x="329.1297" font-size="25px" y="810.6323" clip-path="url(#clipPath2)" font-family="sans-serif" stroke="none" stroke-width="1" xml:space="preserve">loop unrolling</text>
    </g>
    <g fill="rgb(153,153,153)" text-rendering="geometricPrecision" shape-rendering="geometricPrecision" transform="matrix(1,0,0,1,49,-271)" stroke="rgb(153,153,153)">
      <rect x="349.18" width="125" height="80" y="586.7973" clip-path="url(#clipPath2)" stroke="none"/>
      <rect x="349.18" y="586.7973" clip-path="url(#clipPath2)" fill="rgb(218,218,218)" width="1" height="80" stroke="none"/>
      <rect x="350.18" y="586.7973" clip-path="url(#clipPath2)" fill="rgb(218,218,218)" width="123" height="1" stroke="none"/>
      <rect x="350.18" y="665.7973" clip-path="url(#clipPath2)" fill="rgb(107,107,107)" width="124" height="1" stroke="none"/>
      <rect x="473.18" y="586.7973" clip-path="url(#clipPath2)" fill="rgb(107,107,107)" width="1" height="79" stroke="none"/>
    </g>
    <g font-size="35px" stroke-linecap="butt" transform="matrix(1,0,0,1,49,-271)" text-rendering="geometricPrecision" font-family="sans-serif" shape-rendering="geometricPrecision" stroke-miterlimit="1.45">
      <text x="379.0249" xml:space="preserve" y="640.3774" clip-path="url(#clipPath2)" stroke="none">KFG</text>
    </g>
    <g fill="rgb(153,153,153)" text-rendering="geometricPrecision" shape-rendering="geometricPrecision" transform="matrix(1,0,0,1,49,-271)" stroke="rgb(153,153,153)">
      <path d="M576.6 608.1577 L602.9604 581.7974 L640.2396 581.7974 L666.6 608.1577 L666.6 645.437 L640.2396 671.7974 L602.9604 671.7974 L576.6 645.437 Z" fill-rule="evenodd" clip-path="url(#clipPath2)" stroke="none"/>
    </g>
    <g font-size="35px" stroke-linecap="butt" transform="matrix(1,0,0,1,49,-271)" text-rendering="geometricPrecision" font-family="sans-serif" shape-rendering="geometricPrecision" stroke-miterlimit="1.45">
      <text x="601.405" xml:space="preserve" y="640.3774" clip-path="url(#clipPath2)" stroke="none">PS</text>
    </g>
    <g fill="rgb(153,153,153)" text-rendering="geometricPrecision" shape-rendering="geometricPrecision" transform="matrix(1,0,0,1,49,-271)" stroke="rgb(153,153,153)">
      <rect x="829.1" width="125" height="80" y="586.7973" clip-path="url(#clipPath2)" stroke="none"/>
      <rect x="829.1" y="586.7973" clip-path="url(#clipPath2)" fill="rgb(218,218,218)" width="1" height="80" stroke="none"/>
      <rect x="830.1" y="586.7973" clip-path="url(#clipPath2)" fill="rgb(218,218,218)" width="123" height="1" stroke="none"/>
      <rect x="830.1" y="665.7973" clip-path="url(#clipPath2)" fill="rgb(107,107,107)" width="124" height="1" stroke="none"/>
      <rect x="953.1" y="586.7973" clip-path="url(#clipPath2)" fill="rgb(107,107,107)" width="1" height="79" stroke="none"/>
    </g>
    <g font-size="35px" stroke-linecap="butt" transform="matrix(1,0,0,1,49,-271)" text-rendering="geometricPrecision" font-family="sans-serif" shape-rendering="geometricPrecision" stroke-miterlimit="1.45">
      <text x="856.3899" xml:space="preserve" y="640.3774" clip-path="url(#clipPath2)" stroke="none">SMT</text>
      <text x="327.6047" xml:space="preserve" font-size="25px" y="743.5081" clip-path="url(#clipPath2)" stroke="none">bytecode level</text>
      <text x="316.5421" xml:space="preserve" font-size="25px" y="777.5582" clip-path="url(#clipPath2)" stroke="none">transformations</text>
      <text x="401.6299" xml:space="preserve" font-size="25px" y="890.1669" clip-path="url(#clipPath2)" stroke="none">...</text>
    </g>
    <g fill="silver" text-rendering="geometricPrecision" shape-rendering="geometricPrecision" transform="matrix(1,0,0,1,49,-271)" stroke="silver">
      <rect x="496.6" width="250" height="230" y="286.7037" clip-path="url(#clipPath2)" stroke="none"/>
    </g>
    <g text-rendering="geometricPrecision" stroke-miterlimit="1.45" shape-rendering="geometricPrecision" transform="matrix(1,0,0,1,49,-271)" stroke-linecap="butt">
      <rect fill="none" x="496.6" width="250" height="230" y="286.7037" clip-path="url(#clipPath2)"/>
    </g>
    <g fill="white" text-rendering="geometricPrecision" shape-rendering="geometricPrecision" transform="matrix(1,0,0,1,49,-271)" stroke="white">
      <rect x="521.6" width="200" height="30" y="475.3515" clip-path="url(#clipPath2)" stroke="none"/>
    </g>
    <g text-rendering="geometricPrecision" stroke-miterlimit="1.45" stroke-width="2" shape-rendering="geometricPrecision" transform="matrix(1,0,0,1,49,-271)" stroke-linecap="butt">
      <rect fill="none" x="521.6" width="200" height="30" y="475.3515" clip-path="url(#clipPath2)"/>
      <text x="576.4998" font-size="25px" y="500.0515" clip-path="url(#clipPath2)" font-family="sans-serif" stroke="none" stroke-width="1" xml:space="preserve">aliasing</text>
    </g>
    <g fill="white" text-rendering="geometricPrecision" shape-rendering="geometricPrecision" transform="matrix(1,0,0,1,49,-271)" stroke="white">
      <rect x="521.6" width="200" height="30" y="398.5607" clip-path="url(#clipPath2)" stroke="none"/>
    </g>
    <g text-rendering="geometricPrecision" stroke-miterlimit="1.45" stroke-width="2" shape-rendering="geometricPrecision" transform="matrix(1,0,0,1,49,-271)" stroke-linecap="butt">
      <rect fill="none" x="521.6" width="200" height="30" y="398.5607" clip-path="url(#clipPath2)"/>
      <text x="584.5248" font-size="25px" y="423.2607" clip-path="url(#clipPath2)" font-family="sans-serif" stroke="none" stroke-width="1" xml:space="preserve">slicing</text>
    </g>
    <g fill="white" text-rendering="geometricPrecision" shape-rendering="geometricPrecision" transform="matrix(1,0,0,1,49,-271)" stroke="white">
      <rect x="521.6" width="200" height="30" y="357.4215" clip-path="url(#clipPath2)" stroke="none"/>
    </g>
    <g text-rendering="geometricPrecision" stroke-miterlimit="1.45" stroke-width="2" shape-rendering="geometricPrecision" transform="matrix(1,0,0,1,49,-271)" stroke-linecap="butt">
      <rect fill="none" x="521.6" width="200" height="30" y="357.4215" clip-path="url(#clipPath2)"/>
      <text x="545.8497" font-size="25px" y="382.1216" clip-path="url(#clipPath2)" font-family="sans-serif" stroke="none" stroke-width="1" xml:space="preserve">memspacing</text>
      <text x="566.5998" font-size="25px" y="314.9973" clip-path="url(#clipPath2)" font-family="sans-serif" stroke="none" stroke-width="1" xml:space="preserve">symbolic </text>
      <text x="526.4621" font-size="25px" y="349.0474" clip-path="url(#clipPath2)" font-family="sans-serif" stroke="none" stroke-width="1" xml:space="preserve">transformations</text>
      <text x="611.55" font-size="25px" y="461.6561" clip-path="url(#clipPath2)" font-family="sans-serif" stroke="none" stroke-width="1" xml:space="preserve">...</text>
      <text x="59.4324" font-size="35px" y="555.3774" clip-path="url(#clipPath2)" font-family="sans-serif" stroke="none" stroke-width="1" xml:space="preserve">inputs</text>
    </g>
    <g fill="silver" text-rendering="geometricPrecision" shape-rendering="geometricPrecision" transform="matrix(1,0,0,1,49,-271)" stroke="silver">
      <rect x="766.6" width="250" height="230" y="719.7611" clip-path="url(#clipPath2)" stroke="none"/>
    </g>
    <g text-rendering="geometricPrecision" stroke-miterlimit="1.45" shape-rendering="geometricPrecision" transform="matrix(1,0,0,1,49,-271)" stroke-linecap="butt">
      <rect fill="none" x="766.6" width="250" height="230" y="719.7611" clip-path="url(#clipPath2)"/>
    </g>
    <g fill="white" text-rendering="geometricPrecision" shape-rendering="geometricPrecision" transform="matrix(1,0,0,1,49,-271)" stroke="white">
      <rect x="791.6" width="200" height="30" y="903.8623" clip-path="url(#clipPath2)" stroke="none"/>
    </g>
    <g text-rendering="geometricPrecision" stroke-miterlimit="1.45" stroke-width="2" shape-rendering="geometricPrecision" transform="matrix(1,0,0,1,49,-271)" stroke-linecap="butt">
      <rect fill="none" x="791.6" width="200" height="30" y="903.8623" clip-path="url(#clipPath2)"/>
      <text x="807.4372" font-size="25px" y="928.5623" clip-path="url(#clipPath2)" font-family="sans-serif" stroke="none" stroke-width="1" xml:space="preserve">type inference</text>
    </g>
    <g fill="white" text-rendering="geometricPrecision" shape-rendering="geometricPrecision" transform="matrix(1,0,0,1,49,-271)" stroke="white">
      <rect x="791.6" width="200" height="30" y="827.0715" clip-path="url(#clipPath2)" stroke="none"/>
    </g>
    <g text-rendering="geometricPrecision" stroke-miterlimit="1.45" stroke-width="2" shape-rendering="geometricPrecision" transform="matrix(1,0,0,1,49,-271)" stroke-linecap="butt">
      <rect fill="none" x="791.6" width="200" height="30" y="827.0715" clip-path="url(#clipPath2)"/>
      <text x="802.9246" font-size="25px" y="851.7715" clip-path="url(#clipPath2)" font-family="sans-serif" stroke="none" stroke-width="1" xml:space="preserve">error detection</text>
    </g>
    <g fill="white" text-rendering="geometricPrecision" shape-rendering="geometricPrecision" transform="matrix(1,0,0,1,49,-271)" stroke="white">
      <rect x="791.6" width="200" height="30" y="785.9323" clip-path="url(#clipPath2)" stroke="none"/>
    </g>
    <g text-rendering="geometricPrecision" stroke-miterlimit="1.45" stroke-width="2" shape-rendering="geometricPrecision" transform="matrix(1,0,0,1,49,-271)" stroke-linecap="butt">
      <rect fill="none" x="791.6" width="200" height="30" y="785.9323" clip-path="url(#clipPath2)"/>
      <text x="801.5746" font-size="25px" y="810.6323" clip-path="url(#clipPath2)" font-family="sans-serif" stroke="none" stroke-width="1" xml:space="preserve">test generation</text>
      <text x="828.9247" font-size="25px" y="743.5081" clip-path="url(#clipPath2)" font-family="sans-serif" stroke="none" stroke-width="1" xml:space="preserve">constraint </text>
      <text x="846.5873" font-size="25px" y="777.5582" clip-path="url(#clipPath2)" font-family="sans-serif" stroke="none" stroke-width="1" xml:space="preserve">solving </text>
      <text x="881.55" font-size="25px" y="890.1669" clip-path="url(#clipPath2)" font-family="sans-serif" stroke="none" stroke-width="1" xml:space="preserve">...</text>
    </g>
    <g fill="silver" text-rendering="geometricPrecision" shape-rendering="geometricPrecision" transform="matrix(1,0,0,1,49,-271)" stroke="silver">
      <rect x="1073.8" width="250" height="220" y="516.7973" clip-path="url(#clipPath2)" stroke="none"/>
    </g>
    <g text-rendering="geometricPrecision" stroke-miterlimit="1.45" shape-rendering="geometricPrecision" transform="matrix(1,0,0,1,49,-271)" stroke-linecap="butt">
      <rect fill="none" x="1073.8" width="250" height="220" y="516.7973" clip-path="url(#clipPath2)"/>
      <text x="988.7999" font-size="25px" y="622.2695" clip-path="url(#clipPath2)" font-family="sans-serif" stroke="none" xml:space="preserve">SMT</text>
      <text x="976.7374" font-size="25px" y="656.3196" clip-path="url(#clipPath2)" font-family="sans-serif" stroke="none" xml:space="preserve">model</text>
    </g>
    <g fill="white" text-rendering="geometricPrecision" shape-rendering="geometricPrecision" transform="matrix(1,0,0,1,49,-271)" stroke="white">
      <rect x="1113.8" width="170" height="30" y="667.0953" clip-path="url(#clipPath2)" stroke="none"/>
    </g>
    <g text-rendering="geometricPrecision" stroke-miterlimit="1.45" stroke-width="2" shape-rendering="geometricPrecision" transform="matrix(1,0,0,1,49,-271)" stroke-linecap="butt">
      <rect fill="none" x="1113.8" width="170" height="30" y="667.0953" clip-path="url(#clipPath2)"/>
      <text x="1144.9873" font-size="25px" y="691.7953" clip-path="url(#clipPath2)" font-family="sans-serif" stroke="none" stroke-width="1" xml:space="preserve">test suite</text>
    </g>
    <g fill="white" text-rendering="geometricPrecision" shape-rendering="geometricPrecision" transform="matrix(1,0,0,1,49,-271)" stroke="white">
      <rect x="1113.8" width="170" height="30" y="590.3045" clip-path="url(#clipPath2)" stroke="none"/>
    </g>
    <g text-rendering="geometricPrecision" stroke-miterlimit="1.45" stroke-width="2" shape-rendering="geometricPrecision" transform="matrix(1,0,0,1,49,-271)" stroke-linecap="butt">
      <rect fill="none" x="1113.8" width="170" height="30" y="590.3045" clip-path="url(#clipPath2)"/>
      <text x="1136.6248" font-size="25px" y="615.0046" clip-path="url(#clipPath2)" font-family="sans-serif" stroke="none" stroke-width="1" xml:space="preserve">test inputs</text>
    </g>
    <g fill="white" text-rendering="geometricPrecision" shape-rendering="geometricPrecision" transform="matrix(1,0,0,1,49,-271)" stroke="white">
      <rect x="1113.8" width="170" height="30" y="549.1653" clip-path="url(#clipPath2)" stroke="none"/>
    </g>
    <g text-rendering="geometricPrecision" stroke-miterlimit="1.45" stroke-width="2" shape-rendering="geometricPrecision" transform="matrix(1,0,0,1,49,-271)" stroke-linecap="butt">
      <rect fill="none" x="1113.8" width="170" height="30" y="549.1653" clip-path="url(#clipPath2)"/>
      <text x="1128.3123" font-size="25px" y="573.8654" clip-path="url(#clipPath2)" font-family="sans-serif" stroke="none" stroke-width="1" xml:space="preserve">error report</text>
      <text x="1188.75" font-size="25px" y="653.4" clip-path="url(#clipPath2)" font-family="sans-serif" stroke="none" stroke-width="1" xml:space="preserve">...</text>
      <path fill="none" d="M216.016 626.7974 L341.1497 626.7974" stroke-width="1" clip-path="url(#clipPath2)"/>
      <path d="M349.1497 626.7974 L337.1497 621.7974 L340.1497 626.7974 L337.1497 631.7974 Z" stroke-width="1" clip-path="url(#clipPath2)" stroke="none"/>
      <path fill="none" stroke-dasharray="18,6" d="M531.3008 719.7873 L474.1955 666.3884" stroke-width="3" clip-path="url(#clipPath2)"/>
      <path fill="none" stroke-dasharray="18,6" d="M290.2079 719.7451 L349.5063 666.8095" stroke-width="3" clip-path="url(#clipPath2)"/>
      <path fill="none" d="M474.1794 626.7974 L568.5748 626.7974" stroke-width="1" clip-path="url(#clipPath2)"/>
      <path d="M576.5748 626.7974 L564.5748 621.7974 L567.5748 626.7974 L564.5748 631.7974 Z" stroke-width="1" clip-path="url(#clipPath2)" stroke="none"/>
      <path fill="none" d="M666.589 626.7974 L821.1122 626.7974" stroke-width="1" clip-path="url(#clipPath2)"/>
      <path d="M829.1122 626.7974 L817.1122 621.7974 L820.1122 626.7974 L817.1122 631.7974 Z" stroke-width="1" clip-path="url(#clipPath2)" stroke="none"/>
      <path fill="none" stroke-dasharray="12,4" d="M587.9391 596.7818 L498.1387 516.7064" clip-path="url(#clipPath2)"/>
      <path fill="none" stroke-dasharray="12,4" d="M658.1837 599.7825 L745.6656 516.7106" clip-path="url(#clipPath2)"/>
      <path fill="none" stroke-dasharray="18,6" d="M766.8937 719.749 L829.0767 665.8926" stroke-width="3" clip-path="url(#clipPath2)"/>
      <path fill="none" stroke-dasharray="18,6" d="M1011.003 719.7645 L954.1116 665.8967" stroke-width="3" clip-path="url(#clipPath2)"/>
      <path fill="none" d="M954.1125 626.7974 L1065.8 626.7974" stroke-width="1" clip-path="url(#clipPath2)"/>
      <path d="M1073.8 626.7974 L1061.8 621.7974 L1064.8 626.7974 L1061.8 631.7974 Z" stroke-width="1" clip-path="url(#clipPath2)" stroke="none"/>
    </g>
  </g>
</svg>
