<?xml version="1.0" encoding="UTF-8" standalone="no"?>
<!DOCTYPE svg PUBLIC "-//W3C//DTD SVG 1.1//EN"
 "http://www.w3.org/Graphics/SVG/1.1/DTD/svg11.dtd">
<!-- Generated by graphviz version 2.47.1 (0)
 -->
<!-- Title: foo Pages: 1 -->
<svg width="515pt" height="1197pt"
 viewBox="0.00 0.00 515.00 1197.00" xmlns="http://www.w3.org/2000/svg" xmlns:xlink="http://www.w3.org/1999/xlink">
<g id="graph0" class="graph" transform="scale(1 1) rotate(0) translate(4 1193)">
<title>foo</title>
<!-- %3 -->
<g id="node1" class="node">
<title>%3</title>
<polygon fill="none" stroke="black" points="225.5,-202 58.5,-202 58.5,-155 225.5,-155 225.5,-202"/>
<text text-anchor="start" x="66.5" y="-188.4" font-family="Times,serif" font-size="12.00">%bb7: %if.then0</text>
<text text-anchor="start" x="66.5" y="-175.4" font-family="Times,serif" font-size="12.00"> &#160;&#160;&#160;special %8.&lt;init&gt;(%9)</text>
<text text-anchor="start" x="66.5" y="-162.4" font-family="Times,serif" font-size="12.00"> &#160;&#160;&#160;goto %bb8</text>
</g>
<!-- %5 -->
<g id="node2" class="node">
<title>%5</title>
<polygon fill="none" stroke="black" points="257.5,-119 26.5,-119 26.5,-72 257.5,-72 257.5,-119"/>
<text text-anchor="start" x="34.5" y="-105.4" font-family="Times,serif" font-size="12.00">%bb8: %bb7</text>
<text text-anchor="start" x="34.5" y="-92.4" font-family="Times,serif" font-size="12.00"> &#160;&#160;&#160;%10 = (java/lang/Throwable) %8</text>
<text text-anchor="start" x="34.5" y="-79.4" font-family="Times,serif" font-size="12.00"> &#160;&#160;&#160;goto %bb9</text>
</g>
<!-- %3&#45;&gt;%5 -->
<g id="edge1" class="edge">
<title>%5&#45;&gt;%5</title>
<path fill="none" stroke="black" d="M142,-154.94C142,-147.02 142,-137.95 142,-129.36"/>
<polygon fill="black" stroke="black" points="145.5,-129.22 142,-119.22 138.5,-129.22 145.5,-129.22"/>
</g>
<!-- %11 -->
<g id="node5" class="node">
<title>%11</title>
<polygon fill="none" stroke="black" points="191,-36 93,-36 93,0 191,0 191,-36"/>
<text text-anchor="start" x="101" y="-21.4" font-family="Times,serif" font-size="12.00">%bb9: %bb8</text>
<text text-anchor="start" x="101" y="-8.4" font-family="Times,serif" font-size="12.00"> &#160;&#160;&#160;throw %10</text>
</g>
<!-- %5&#45;&gt;%11 -->
<g id="edge2" class="edge">
<title>%11&#45;&gt;%11</title>
<path fill="none" stroke="black" d="M142,-71.85C142,-63.78 142,-54.62 142,-46.22"/>
<polygon fill="black" stroke="black" points="145.5,-46.11 142,-36.11 138.5,-46.11 145.5,-46.11"/>
</g>
<!-- %7 -->
<g id="node3" class="node">
<title>%7</title>
<polygon fill="none" stroke="black" points="366.5,-547 179.5,-547 179.5,-500 366.5,-500 366.5,-547"/>
<text text-anchor="start" x="187.5" y="-533.4" font-family="Times,serif" font-size="12.00">%bb5: %label0</text>
<text text-anchor="start" x="187.5" y="-520.4" font-family="Times,serif" font-size="12.00"> &#160;&#160;&#160;%4 = virtual arg$1.getY()</text>
<text text-anchor="start" x="187.5" y="-507.4" font-family="Times,serif" font-size="12.00"> &#160;&#160;&#160;goto %bb6</text>
</g>
<!-- %9 -->
<g id="node4" class="node">
<title>%9</title>
<polygon fill="none" stroke="black" points="381,-464 165,-464 165,-417 381,-417 381,-464"/>
<text text-anchor="start" x="173" y="-450.4" font-family="Times,serif" font-size="12.00">%bb6: %bb5</text>
<text text-anchor="start" x="173" y="-437.4" font-family="Times,serif" font-size="12.00"> &#160;&#160;&#160;%5 = static Math.min(%3, %4)</text>
<text text-anchor="start" x="173" y="-424.4" font-family="Times,serif" font-size="12.00"> &#160;&#160;&#160;goto %label1</text>
</g>
<!-- %7&#45;&gt;%9 -->
<g id="edge3" class="edge">
<title>%9&#45;&gt;%9</title>
<path fill="none" stroke="black" d="M273,-499.94C273,-492.02 273,-482.95 273,-474.36"/>
<polygon fill="black" stroke="black" points="276.5,-474.22 273,-464.22 269.5,-474.22 276.5,-474.22"/>
</g>
<!-- %19 -->
<g id="node10" class="node">
<title>%19</title>
<polygon fill="none" stroke="black" points="396,-381 150,-381 150,-334 396,-334 396,-381"/>
<text text-anchor="start" x="158" y="-367.4" font-family="Times,serif" font-size="12.00">%label1: %bb6</text>
<text text-anchor="start" x="158" y="-354.4" font-family="Times,serif" font-size="12.00"> &#160;&#160;&#160;%6 = (%2 &lt; %5)</text>
<text text-anchor="start" x="158" y="-341.4" font-family="Times,serif" font-size="12.00"> &#160;&#160;&#160;if (%6) goto %if.then0 else %if.else0</text>
</g>
<!-- %9&#45;&gt;%19 -->
<g id="edge4" class="edge">
<title>%19&#45;&gt;%19</title>
<path fill="none" stroke="black" d="M273,-416.94C273,-409.02 273,-399.95 273,-391.36"/>
<polygon fill="black" stroke="black" points="276.5,-391.22 273,-381.22 269.5,-391.22 276.5,-391.22"/>
</g>
<!-- foo -->
<g id="node6" class="node">
<title>foo</title>
<polygon fill="none" stroke="black" points="507,-1189 39,-1189 39,-1153 507,-1153 507,-1189"/>
<text text-anchor="middle" x="273" y="-1167.9" font-family="Times,serif" font-size="12.00">org/example/Test::foo(org/example/Test$Point, org/example/Test$Point): int</text>
</g>
<!-- %13 -->
<g id="node7" class="node">
<title>%13</title>
<polygon fill="none" stroke="black" points="321,-1117 225,-1117 225,-1081 321,-1081 321,-1117"/>
<text text-anchor="start" x="233" y="-1102.4" font-family="Times,serif" font-size="12.00">%entry0: </text>
<text text-anchor="start" x="233" y="-1089.4" font-family="Times,serif" font-size="12.00"> &#160;&#160;&#160;goto %bb0</text>
</g>
<!-- foo&#45;&gt;%13 -->
<g id="edge5" class="edge">
<title>foo&#45;&gt;%13</title>
<path fill="none" stroke="black" d="M273,-1152.7C273,-1144.98 273,-1135.71 273,-1127.11"/>
<polygon fill="black" stroke="black" points="276.5,-1127.1 273,-1117.1 269.5,-1127.1 276.5,-1127.1"/>
</g>
<!-- %25 -->
<g id="node13" class="node">
<title>%25</title>
<polygon fill="none" stroke="black" points="446,-1045 100,-1045 100,-998 446,-998 446,-1045"/>
<text text-anchor="start" x="108" y="-1031.4" font-family="Times,serif" font-size="12.00">%bb0: %entry0</text>
<text text-anchor="start" x="108" y="-1018.4" font-family="Times,serif" font-size="12.00"> &#160;&#160;&#160;static Intrinsics.checkNotNullParameter(arg$0, &quot;a&quot;)</text>
<text text-anchor="start" x="108" y="-1005.4" font-family="Times,serif" font-size="12.00"> &#160;&#160;&#160;goto %bb1</text>
</g>
<!-- %13&#45;&gt;%25 -->
<g id="edge6" class="edge">
<title>%25&#45;&gt;%25</title>
<path fill="none" stroke="black" d="M273,-1080.87C273,-1073.24 273,-1063.99 273,-1055.12"/>
<polygon fill="black" stroke="black" points="276.5,-1055.01 273,-1045.01 269.5,-1055.01 276.5,-1055.01"/>
</g>
<!-- %15 -->
<g id="node8" class="node">
<title>%15</title>
<polygon fill="none" stroke="black" points="284,-298 0,-298 0,-238 284,-238 284,-298"/>
<text text-anchor="start" x="8" y="-284.4" font-family="Times,serif" font-size="12.00">%if.then0: %label1</text>
<text text-anchor="start" x="8" y="-271.4" font-family="Times,serif" font-size="12.00"> &#160;&#160;&#160;%8 = new java/lang/IllegalStateException</text>
<text text-anchor="start" x="8" y="-258.4" font-family="Times,serif" font-size="12.00"> &#160;&#160;&#160;%9 = virtual &quot;Invalid result&quot;.toString()</text>
<text text-anchor="start" x="8" y="-245.4" font-family="Times,serif" font-size="12.00"> &#160;&#160;&#160;goto %bb7</text>
</g>
<!-- %15&#45;&gt;%3 -->
<g id="edge7" class="edge">
<title>%3&#45;&gt;%3</title>
<path fill="none" stroke="black" d="M142,-237.86C142,-229.68 142,-220.73 142,-212.35"/>
<polygon fill="black" stroke="black" points="145.5,-212.15 142,-202.15 138.5,-212.15 145.5,-212.15"/>
</g>
<!-- %17 -->
<g id="node9" class="node">
<title>%17</title>
<polygon fill="none" stroke="black" points="466,-202 342,-202 342,-155 466,-155 466,-202"/>
<text text-anchor="start" x="350" y="-188.4" font-family="Times,serif" font-size="12.00">%goto0: %if.else0</text>
<text text-anchor="start" x="350" y="-175.4" font-family="Times,serif" font-size="12.00"> &#160;&#160;&#160;%11 = %2 &#45; %5</text>
<text text-anchor="start" x="350" y="-162.4" font-family="Times,serif" font-size="12.00"> &#160;&#160;&#160;return %11</text>
</g>
<!-- %19&#45;&gt;%15 -->
<g id="edge9" class="edge">
<title>%15&#45;&gt;%15</title>
<path fill="none" stroke="black" d="M239.26,-333.97C225.45,-324.74 209.14,-313.85 193.87,-303.65"/>
<polygon fill="black" stroke="black" points="195.78,-300.71 185.52,-298.07 191.89,-306.53 195.78,-300.71"/>
</g>
<!-- %23 -->
<g id="node12" class="node">
<title>%23</title>
<polygon fill="none" stroke="black" points="505.5,-298 302.5,-298 302.5,-238 505.5,-238 505.5,-298"/>
<text text-anchor="start" x="310.5" y="-284.4" font-family="Times,serif" font-size="12.00">%if.else0: %label1</text>
<text text-anchor="start" x="310.5" y="-271.4" font-family="Times,serif" font-size="12.00"> &#160;&#160;&#160;%7 = System.out</text>
<text text-anchor="start" x="310.5" y="-258.4" font-family="Times,serif" font-size="12.00"> &#160;&#160;&#160;virtual %7.println(&quot;success&quot;)</text>
<text text-anchor="start" x="310.5" y="-245.4" font-family="Times,serif" font-size="12.00"> &#160;&#160;&#160;goto %goto0</text>
</g>
<!-- %19&#45;&gt;%23 -->
<g id="edge8" class="edge">
<title>%23&#45;&gt;%23</title>
<path fill="none" stroke="black" d="M306.74,-333.97C320.55,-324.74 336.86,-313.85 352.13,-303.65"/>
<polygon fill="black" stroke="black" points="354.11,-306.53 360.48,-298.07 350.22,-300.71 354.11,-306.53"/>
</g>
<!-- %21 -->
<g id="node11" class="node">
<title>%21</title>
<polygon fill="none" stroke="black" points="366.5,-630 179.5,-630 179.5,-583 366.5,-583 366.5,-630"/>
<text text-anchor="start" x="187.5" y="-616.4" font-family="Times,serif" font-size="12.00">%label0: %bb4</text>
<text text-anchor="start" x="187.5" y="-603.4" font-family="Times,serif" font-size="12.00"> &#160;&#160;&#160;%3 = virtual arg$0.getY()</text>
<text text-anchor="start" x="187.5" y="-590.4" font-family="Times,serif" font-size="12.00"> &#160;&#160;&#160;goto %bb5</text>
</g>
<!-- %21&#45;&gt;%7 -->
<g id="edge10" class="edge">
<title>%7&#45;&gt;%7</title>
<path fill="none" stroke="black" d="M273,-582.94C273,-575.02 273,-565.95 273,-557.36"/>
<polygon fill="black" stroke="black" points="276.5,-557.22 273,-547.22 269.5,-557.22 276.5,-557.22"/>
</g>
<!-- %23&#45;&gt;%17 -->
<g id="edge11" class="edge">
<title>%17&#45;&gt;%17</title>
<path fill="none" stroke="black" d="M404,-237.86C404,-229.68 404,-220.73 404,-212.35"/>
<polygon fill="black" stroke="black" points="407.5,-212.15 404,-202.15 400.5,-212.15 407.5,-212.15"/>
</g>
<!-- %31 -->
<g id="node16" class="node">
<title>%31</title>
<polygon fill="none" stroke="black" points="446,-962 100,-962 100,-915 446,-915 446,-962"/>
<text text-anchor="start" x="108" y="-948.4" font-family="Times,serif" font-size="12.00">%bb1: %bb0</text>
<text text-anchor="start" x="108" y="-935.4" font-family="Times,serif" font-size="12.00"> &#160;&#160;&#160;static Intrinsics.checkNotNullParameter(arg$1, &quot;b&quot;)</text>
<text text-anchor="start" x="108" y="-922.4" font-family="Times,serif" font-size="12.00"> &#160;&#160;&#160;goto %bb2</text>
</g>
<!-- %25&#45;&gt;%31 -->
<g id="edge12" class="edge">
<title>%31&#45;&gt;%31</title>
<path fill="none" stroke="black" d="M273,-997.94C273,-990.02 273,-980.95 273,-972.36"/>
<polygon fill="black" stroke="black" points="276.5,-972.22 273,-962.22 269.5,-972.22 276.5,-972.22"/>
</g>
<!-- %27 -->
<g id="node14" class="node">
<title>%27</title>
<polygon fill="none" stroke="black" points="366.5,-796 179.5,-796 179.5,-749 366.5,-749 366.5,-796"/>
<text text-anchor="start" x="187.5" y="-782.4" font-family="Times,serif" font-size="12.00">%bb3: %bb2</text>
<text text-anchor="start" x="187.5" y="-769.4" font-family="Times,serif" font-size="12.00"> &#160;&#160;&#160;%1 = virtual arg$1.getX()</text>
<text text-anchor="start" x="187.5" y="-756.4" font-family="Times,serif" font-size="12.00"> &#160;&#160;&#160;goto %bb4</text>
</g>
<!-- %29 -->
<g id="node15" class="node">
<title>%29</title>
<polygon fill="none" stroke="black" points="382.5,-713 163.5,-713 163.5,-666 382.5,-666 382.5,-713"/>
<text text-anchor="start" x="171.5" y="-699.4" font-family="Times,serif" font-size="12.00">%bb4: %bb3</text>
<text text-anchor="start" x="171.5" y="-686.4" font-family="Times,serif" font-size="12.00"> &#160;&#160;&#160;%2 = static Math.max(%0, %1)</text>
<text text-anchor="start" x="171.5" y="-673.4" font-family="Times,serif" font-size="12.00"> &#160;&#160;&#160;goto %label0</text>
</g>
<!-- %27&#45;&gt;%29 -->
<g id="edge13" class="edge">
<title>%29&#45;&gt;%29</title>
<path fill="none" stroke="black" d="M273,-748.94C273,-741.02 273,-731.95 273,-723.36"/>
<polygon fill="black" stroke="black" points="276.5,-723.22 273,-713.22 269.5,-723.22 276.5,-723.22"/>
</g>
<!-- %29&#45;&gt;%21 -->
<g id="edge14" class="edge">
<title>%21&#45;&gt;%21</title>
<path fill="none" stroke="black" d="M273,-665.94C273,-658.02 273,-648.95 273,-640.36"/>
<polygon fill="black" stroke="black" points="276.5,-640.22 273,-630.22 269.5,-640.22 276.5,-640.22"/>
</g>
<!-- %33 -->
<g id="node17" class="node">
<title>%33</title>
<polygon fill="none" stroke="black" points="366.5,-879 179.5,-879 179.5,-832 366.5,-832 366.5,-879"/>
<text text-anchor="start" x="187.5" y="-865.4" font-family="Times,serif" font-size="12.00">%bb2: %bb1</text>
<text text-anchor="start" x="187.5" y="-852.4" font-family="Times,serif" font-size="12.00"> &#160;&#160;&#160;%0 = virtual arg$0.getX()</text>
<text text-anchor="start" x="187.5" y="-839.4" font-family="Times,serif" font-size="12.00"> &#160;&#160;&#160;goto %bb3</text>
</g>
<!-- %31&#45;&gt;%33 -->
<g id="edge15" class="edge">
<title>%33&#45;&gt;%33</title>
<path fill="none" stroke="black" d="M273,-914.94C273,-907.02 273,-897.95 273,-889.36"/>
<polygon fill="black" stroke="black" points="276.5,-889.22 273,-879.22 269.5,-889.22 276.5,-889.22"/>
</g>
<!-- %33&#45;&gt;%27 -->
<g id="edge16" class="edge">
<title>%27&#45;&gt;%27</title>
<path fill="none" stroke="black" d="M273,-831.94C273,-824.02 273,-814.95 273,-806.36"/>
<polygon fill="black" stroke="black" points="276.5,-806.22 273,-796.22 269.5,-806.22 276.5,-806.22"/>
</g>
</g>
</svg>
